<?xml version="1.0" encoding="UTF-8" standalone="no"?>
<!-- Created with Inkscape (http://www.inkscape.org/) -->

<svg
   width="212.56009mm"
   height="75.352478mm"
   viewBox="0 0 212.56009 75.352478"
   version="1.1"
   id="svg5"
   inkscape:version="1.1.1 (3bf5ae0d25, 2021-09-20)"
   sodipodi:docname="logo.svg"
   xmlns:inkscape="http://www.inkscape.org/namespaces/inkscape"
   xmlns:sodipodi="http://sodipodi.sourceforge.net/DTD/sodipodi-0.dtd"
   xmlns="http://www.w3.org/2000/svg"
   xmlns:svg="http://www.w3.org/2000/svg">
  <sodipodi:namedview
     id="namedview7"
     pagecolor="#ffffff"
     bordercolor="#666666"
     borderopacity="1.0"
     inkscape:pageshadow="2"
     inkscape:pageopacity="0.0"
     inkscape:pagecheckerboard="0"
     inkscape:document-units="mm"
     showgrid="false"
     inkscape:zoom="3.3633039"
     inkscape:cx="401.68835"
     inkscape:cy="142.27082"
     inkscape:window-width="3440"
     inkscape:window-height="1351"
     inkscape:window-x="-9"
     inkscape:window-y="-9"
     inkscape:window-maximized="1"
     inkscape:current-layer="layer1" />
  <defs
     id="defs2">
    <clipPath
       clipPathUnits="userSpaceOnUse"
       id="clipPath1405">
      <path
         d="M 0,720 H 720 V 0 H 0 Z"
         id="path1403" />
    </clipPath>
    <clipPath
       clipPathUnits="userSpaceOnUse"
       id="clipPath1731">
      <path
         d="M 0,720 H 720 V 0 H 0 Z"
         id="path1729" />
    </clipPath>
    <clipPath
       clipPathUnits="userSpaceOnUse"
       id="clipPath1937">
      <path
         d="M 0,720 H 720 V 0 H 0 Z"
         id="path1935" />
    </clipPath>
  </defs>
  <g
     inkscape:label="Layer 1"
     inkscape:groupmode="layer"
     id="layer1"
     transform="translate(105.59565,-307.95881)">
    <g
       aria-label="People’s Action for Inclusive Development"
       id="text1929"
       style="font-weight:500;font-stretch:condensed;font-size:8.46667px;font-family:'DIN Pro Cond Medium';-inkscape-font-specification:DINPro-CondensedMedium;fill:#ffffff;stroke-width:0.352778">
      <path
         d="m -25.375089,365.86497 c 0,-1.33773 -0.516466,-1.76107 -1.430867,-1.76107 h -1.354667 v 6.02827 h 0.728134 v -2.5146 h 0.626533 c 0.897467,0 1.430867,-0.4318 1.430867,-1.7526 z m -0.728133,0 c 0,0.80433 -0.237067,1.10067 -0.728134,1.10067 h -0.601133 v -2.2098 h 0.601133 c 0.491067,0 0.728134,0.29633 0.728134,1.10913 z"
         id="path846" />
      <path
         d="m -21.810623,368.10017 c 0,-1.08373 -0.05927,-1.73567 -0.389467,-2.0828 -0.2286,-0.24553 -0.508,-0.33867 -0.8636,-0.33867 -0.3556,0 -0.635,0.0931 -0.8636,0.33867 -0.321734,0.34713 -0.381001,0.99907 -0.381001,1.92193 0,0.9144 0.05927,1.5748 0.389467,1.92194 0.2286,0.24553 0.499534,0.33866 0.872067,0.33866 0.3556,0 0.651934,-0.1016 0.863601,-0.32173 0.245533,-0.26247 0.347133,-0.56727 0.3556,-0.97367 h -0.685801 c 0,0.21167 -0.03387,0.381 -0.143933,0.508 -0.110067,0.127 -0.237067,0.16934 -0.389467,0.16934 -0.1778,0 -0.313267,-0.0762 -0.389467,-0.18627 -0.1524,-0.19473 -0.1778,-0.60113 -0.1778,-1.2954 z m -0.694267,-0.51647 h -1.109134 c 0,-0.635 0.03387,-0.94826 0.169334,-1.10913 0.08467,-0.11007 0.194733,-0.1778 0.381,-0.1778 0.186267,0 0.3048,0.0677 0.389467,0.1778 0.135466,0.16087 0.169333,0.47413 0.169333,1.10913 z"
         id="path848" />
      <path
         d="m -18.153023,367.9393 c 0,-0.889 -0.04233,-1.50706 -0.313266,-1.8542 -0.220134,-0.29633 -0.541867,-0.4064 -0.931334,-0.4064 -0.389467,0 -0.702734,0.11007 -0.922867,0.4064 -0.270934,0.34714 -0.321734,0.9652 -0.321734,1.8542 0,0.889 0.0508,1.50707 0.321734,1.8542 0.220133,0.29634 0.5334,0.4064 0.922867,0.4064 0.389467,0 0.7112,-0.11006 0.931334,-0.4064 0.270933,-0.34713 0.313266,-0.9652 0.313266,-1.8542 z m -0.6858,0 c 0,0.7874 -0.0085,1.23614 -0.169333,1.45627 -0.08467,0.11853 -0.2286,0.18627 -0.389467,0.18627 -0.160867,0 -0.296333,-0.0677 -0.381,-0.18627 -0.160867,-0.22013 -0.1778,-0.66887 -0.1778,-1.45627 0,-0.7874 0.01693,-1.23613 0.1778,-1.45626 0.08467,-0.11854 0.220133,-0.18627 0.381,-0.18627 0.160867,0 0.3048,0.0677 0.389467,0.18627 0.160867,0.22013 0.169333,0.66886 0.169333,1.45626 z"
         id="path850" />
      <path
         d="m -14.359955,367.9393 c 0,-1.016 -0.04233,-1.60866 -0.321734,-1.93886 -0.194733,-0.2286 -0.423333,-0.32174 -0.728133,-0.32174 -0.169334,0 -0.3302,0.0423 -0.474134,0.13547 -0.0762,0.0593 -0.220133,0.1778 -0.262467,0.27093 v -0.33866 h -0.668867 v 6.02827 h 0.685801 v -1.94734 c 0.06773,0.0931 0.160866,0.18627 0.245533,0.24553 0.143934,0.0847 0.296334,0.127 0.474134,0.127 0.321733,0 0.5334,-0.1016 0.728133,-0.3302 0.2794,-0.3302 0.321734,-0.9144 0.321734,-1.9304 z m -0.694267,0 c 0,0.90594 -0.0254,1.27847 -0.1778,1.46474 -0.08467,0.11006 -0.211667,0.1778 -0.372534,0.1778 -0.143933,0 -0.262466,-0.0423 -0.3556,-0.13547 -0.110067,-0.11007 -0.169333,-0.27093 -0.169333,-0.508 v -2.0066 c 0,-0.23707 0.05927,-0.38947 0.169333,-0.49953 0.09313,-0.0931 0.211667,-0.13547 0.3556,-0.13547 0.160867,0 0.287867,0.0677 0.372534,0.1778 0.1524,0.18627 0.1778,0.5588 0.1778,1.46473 z"
         id="path852" />
      <path
         d="m -11.726823,370.13217 v -0.61807 c -0.448734,0 -0.651934,-0.2286 -0.651934,-0.6604 v -4.7498 h -0.6858 v 4.7752 c 0,0.4826 0.1524,0.7874 0.389467,0.98214 0.262467,0.22013 0.575733,0.27093 0.948267,0.27093 z"
         id="path854" />
      <path
         d="m -8.2470224,368.10017 c 0,-1.08373 -0.059267,-1.73567 -0.3894668,-2.0828 -0.2286001,-0.24553 -0.5080002,-0.33867 -0.8636004,-0.33867 -0.3556001,0 -0.6350004,0.0931 -0.8636004,0.33867 -0.321733,0.34713 -0.381,0.99907 -0.381,1.92193 0,0.9144 0.05927,1.5748 0.389467,1.92194 0.2286,0.24553 0.4995333,0.33866 0.8720668,0.33866 0.3556001,0 0.6519336,-0.1016 0.8636003,-0.32173 0.2455335,-0.26247 0.3471335,-0.56727 0.3556002,-0.97367 H -8.949756 c 0,0.21167 -0.033867,0.381 -0.1439334,0.508 -0.1100667,0.127 -0.2370668,0.16934 -0.3894668,0.16934 -0.1778001,0 -0.3132668,-0.0762 -0.3894668,-0.18627 -0.1524,-0.19473 -0.1778,-0.60113 -0.1778,-1.2954 z m -0.6942669,-0.51647 h -1.1091337 c 0,-0.635 0.03387,-0.94826 0.1693333,-1.10913 0.084667,-0.11007 0.1947334,-0.1778 0.3810001,-0.1778 0.1862668,0 0.3048002,0.0677 0.3894669,0.1778 0.1354667,0.16087 0.1693334,0.47413 0.1693334,1.10913 z"
         id="path856" />
      <path
         d="m -6.2827568,365.0183 v -0.9144 h -0.7874003 v 1.49014 z"
         id="path858" />
      <path
         d="m -2.9299568,368.93837 c 0,-0.2794 -0.067733,-0.52493 -0.1862667,-0.70273 -0.1270001,-0.2032 -0.3217335,-0.3556 -0.618067,-0.49954 l -0.5588002,-0.2794 c -0.1778,-0.0847 -0.3048001,-0.18626 -0.3640668,-0.28786 -0.0508,-0.0931 -0.0762,-0.19474 -0.0762,-0.32174 0,-0.16086 0.0508,-0.31326 0.1608667,-0.42333 0.093133,-0.0931 0.2201334,-0.14393 0.3810002,-0.14393 0.1354667,0 0.2709334,0.0423 0.3725334,0.1524 0.1100668,0.11853 0.1608668,0.27093 0.1608668,0.52493 h 0.6773336 c 0,-0.4318 -0.1270001,-0.74507 -0.3556002,-0.9652 -0.2116667,-0.21167 -0.5080002,-0.31327 -0.8551336,-0.31327 -0.3386668,0 -0.643467,0.11007 -0.8636004,0.3302 -0.2201334,0.22014 -0.3640668,0.508 -0.3640668,0.889 0,0.2286 0.042333,0.41487 0.1354667,0.57574 0.1100667,0.18626 0.3132668,0.36406 0.6011336,0.508 l 0.5672669,0.28786 c 0.1778001,0.0931 0.3048001,0.18627 0.3894668,0.31327 0.0762,0.11853 0.1100667,0.24553 0.1100667,0.39793 0,0.1778 -0.067733,0.33867 -0.1693334,0.44027 -0.1100667,0.11007 -0.2370667,0.16087 -0.4148668,0.16087 -0.1354667,0 -0.2878668,-0.0508 -0.3894668,-0.1524 -0.1270001,-0.13547 -0.1862668,-0.3048 -0.1862668,-0.5334 h -0.6773336 c 0,0.39793 0.1185334,0.70273 0.3725335,0.9652 0.2116668,0.22013 0.5249336,0.33866 0.8805337,0.33866 0.3556001,0 0.6604003,-0.1016 0.897467,-0.34713 0.2201334,-0.22013 0.3725335,-0.52493 0.3725335,-0.9144 z"
         id="path860" />
      <path
         d="M 3.4708431,370.13217 2.0738426,364.1039 H 1.371109 l -1.40546727,6.02827 h 0.7620003 l 0.28786677,-1.4224 h 1.3970006 l 0.2878668,1.4224 z M 2.2770427,368.05784 H 1.1509755 l 0.5672669,-2.77707 z"
         id="path862" />
      <path
         d="M 6.8913765,368.9045 H 6.2055762 c 0,0.2032 -0.0254,0.381 -0.1439334,0.51647 -0.084667,0.1016 -0.2201334,0.16087 -0.3725334,0.16087 -0.1608668,0 -0.3048002,-0.0677 -0.3894669,-0.18627 -0.1608667,-0.22013 -0.1693334,-0.66887 -0.1693334,-1.45627 0,-0.79586 0.00847,-1.2446 0.1693334,-1.45626 0.084667,-0.11854 0.2286001,-0.18627 0.3894669,-0.18627 0.1693334,0 0.2878667,0.0508 0.3810001,0.16087 0.1185334,0.14393 0.1354667,0.3302 0.1354667,0.508 h 0.6858003 c -0.016933,-0.37254 -0.084667,-0.7366 -0.3556001,-0.9906 -0.2286001,-0.22014 -0.4995336,-0.29634 -0.8551337,-0.29634 -0.3725335,0 -0.7027336,0.11007 -0.922867,0.4064 -0.2709335,0.34714 -0.3217335,0.9652 -0.3217335,1.8542 0,0.88054 0.0508,1.50707 0.3217335,1.8542 0.2201334,0.29634 0.5503335,0.4064 0.922867,0.4064 0.3556001,0 0.6519336,-0.0931 0.8636003,-0.3048 0.2286001,-0.23706 0.3302002,-0.57573 0.3471335,-0.9906 z"
         id="path864" />
      <path
         d="m 9.7023089,370.13217 v -0.61807 c -0.4572002,0 -0.7027336,-0.19473 -0.7027336,-0.6604 v -2.57386 h 0.6773336 v -0.5334 H 8.9995753 v -1.20227 H 8.313775 v 1.20227 H 7.8142415 v 0.5334 H 8.313775 v 2.59926 c 0,0.4572 0.1354668,0.77894 0.3810002,0.98214 0.2794001,0.23706 0.6180669,0.27093 1.0075337,0.27093 z"
         id="path866" />
      <path
         d="m 11.539577,370.13217 v -4.38573 h -0.6858 v 4.38573 z m 0.05927,-5.16467 v -0.79586 H 10.79451 v 0.79586 z"
         id="path868" />
      <path
         d="m 15.36651,367.9393 c 0,-0.889 -0.04233,-1.50706 -0.313267,-1.8542 -0.220134,-0.29633 -0.541867,-0.4064 -0.931334,-0.4064 -0.389467,0 -0.702733,0.11007 -0.922867,0.4064 -0.270933,0.34714 -0.321733,0.9652 -0.321733,1.8542 0,0.889 0.0508,1.50707 0.321733,1.8542 0.220134,0.29634 0.5334,0.4064 0.922867,0.4064 0.389467,0 0.7112,-0.11006 0.931334,-0.4064 0.270933,-0.34713 0.313267,-0.9652 0.313267,-1.8542 z m -0.685801,0 c 0,0.7874 -0.0085,1.23614 -0.169333,1.45627 -0.08467,0.11853 -0.2286,0.18627 -0.389467,0.18627 -0.160867,0 -0.296333,-0.0677 -0.381,-0.18627 -0.160867,-0.22013 -0.1778,-0.66887 -0.1778,-1.45627 0,-0.7874 0.01693,-1.23613 0.1778,-1.45626 0.08467,-0.11854 0.220133,-0.18627 0.381,-0.18627 0.160867,0 0.3048,0.0677 0.389467,0.18627 0.160867,0.22013 0.169333,0.66886 0.169333,1.45626 z"
         id="path870" />
      <path
         d="m 19.117245,370.13217 v -3.2258 c 0,-0.47413 -0.08467,-0.7112 -0.262467,-0.90593 -0.186267,-0.21167 -0.414867,-0.32174 -0.745067,-0.32174 -0.1778,0 -0.338667,0.0508 -0.474134,0.13547 -0.09313,0.0593 -0.211666,0.16933 -0.270933,0.27093 v -0.33866 h -0.6604 v 4.38573 h 0.6858 v -3.2258 c 0,-0.39793 0.2286,-0.60113 0.516467,-0.60113 0.287867,0 0.524933,0.2032 0.524933,0.60113 v 3.2258 z"
         id="path872" />
      <path
         d="m 24.163375,366.27984 v -0.5334 h -0.677333 v -0.39794 c 0,-0.44026 0.2286,-0.6604 0.677333,-0.6604 v -0.61806 c -0.372533,0 -0.7112,0.0508 -0.982133,0.2794 -0.245534,0.2032 -0.381001,0.51646 -0.381001,0.97366 v 0.42334 h -0.499533 v 0.5334 h 0.499533 v 3.85233 h 0.685801 v -3.85233 z"
         id="path874" />
      <path
         d="m 27.566979,367.9393 c 0,-0.889 -0.04233,-1.50706 -0.313267,-1.8542 -0.220134,-0.29633 -0.541867,-0.4064 -0.931334,-0.4064 -0.389467,0 -0.702733,0.11007 -0.922867,0.4064 -0.270933,0.34714 -0.321733,0.9652 -0.321733,1.8542 0,0.889 0.0508,1.50707 0.321733,1.8542 0.220134,0.29634 0.5334,0.4064 0.922867,0.4064 0.389467,0 0.7112,-0.11006 0.931334,-0.4064 0.270933,-0.34713 0.313267,-0.9652 0.313267,-1.8542 z m -0.685801,0 c 0,0.7874 -0.0085,1.23614 -0.169333,1.45627 -0.08467,0.11853 -0.2286,0.18627 -0.389467,0.18627 -0.160867,0 -0.296333,-0.0677 -0.381,-0.18627 -0.160867,-0.22013 -0.1778,-0.66887 -0.1778,-1.45627 0,-0.7874 0.01693,-1.23613 0.1778,-1.45626 0.08467,-0.11854 0.220133,-0.18627 0.381,-0.18627 0.160867,0 0.3048,0.0677 0.389467,0.18627 0.160867,0.22013 0.169333,0.66886 0.169333,1.45626 z"
         id="path876" />
      <path
         d="m 30.589573,366.3391 v -0.6604 c -0.2794,0 -0.516467,0.0762 -0.719667,0.22014 -0.110066,0.0762 -0.237066,0.19473 -0.3048,0.31326 v -0.46566 h -0.6604 v 4.38573 h 0.6858 v -2.98873 c 0,-0.49954 0.3302,-0.80434 0.795867,-0.80434 z"
         id="path878" />
      <path
         d="m 34.585842,370.13217 v -6.02827 h -0.728133 v 6.02827 z"
         id="path880" />
      <path
         d="m 38.531313,370.13217 v -3.2258 c 0,-0.47413 -0.08467,-0.7112 -0.262467,-0.90593 -0.186267,-0.21167 -0.414867,-0.32174 -0.745067,-0.32174 -0.1778,0 -0.338667,0.0508 -0.474133,0.13547 -0.09313,0.0593 -0.211667,0.16933 -0.270934,0.27093 v -0.33866 h -0.6604 v 4.38573 h 0.6858 v -3.2258 c 0,-0.39793 0.2286,-0.60113 0.516467,-0.60113 0.287867,0 0.524934,0.2032 0.524934,0.60113 v 3.2258 z"
         id="path882" />
      <path
         d="m 42.282046,368.9045 h -0.6858 c 0,0.2032 -0.0254,0.381 -0.143934,0.51647 -0.08467,0.1016 -0.220133,0.16087 -0.372533,0.16087 -0.160867,0 -0.3048,-0.0677 -0.389467,-0.18627 -0.160867,-0.22013 -0.169334,-0.66887 -0.169334,-1.45627 0,-0.79586 0.0085,-1.2446 0.169334,-1.45626 0.08467,-0.11854 0.2286,-0.18627 0.389467,-0.18627 0.169333,0 0.287866,0.0508 0.381,0.16087 0.118533,0.14393 0.135467,0.3302 0.135467,0.508 h 0.6858 c -0.01693,-0.37254 -0.08467,-0.7366 -0.3556,-0.9906 -0.2286,-0.22014 -0.499534,-0.29634 -0.855134,-0.29634 -0.372533,0 -0.702734,0.11007 -0.922867,0.4064 -0.270933,0.34714 -0.321733,0.9652 -0.321733,1.8542 0,0.88054 0.0508,1.50707 0.321733,1.8542 0.220133,0.29634 0.550334,0.4064 0.922867,0.4064 0.3556,0 0.651934,-0.0931 0.8636,-0.3048 0.2286,-0.23706 0.330201,-0.57573 0.347134,-0.9906 z"
         id="path884" />
      <path
         d="m 44.847441,370.13217 v -0.61807 c -0.448733,0 -0.651933,-0.2286 -0.651933,-0.6604 v -4.7498 h -0.6858 v 4.7752 c 0,0.4826 0.1524,0.7874 0.389466,0.98214 0.262467,0.22013 0.575734,0.27093 0.948267,0.27093 z"
         id="path886" />
      <path
         d="m 48.35264,370.13217 v -4.38573 h -0.6858 v 3.2258 c 0,0.4064 -0.2286,0.6096 -0.516467,0.6096 -0.287867,0 -0.524933,-0.2032 -0.524933,-0.6096 v -3.2258 h -0.685801 v 3.2258 c 0,0.47413 0.08467,0.7112 0.262467,0.90593 0.186267,0.21167 0.414867,0.32173 0.745067,0.32173 0.1778,0 0.338667,-0.0508 0.474134,-0.13546 0.09313,-0.0593 0.211666,-0.16934 0.270933,-0.27094 v 0.33867 z"
         id="path888" />
      <path
         d="m 52.120307,368.93837 c 0,-0.2794 -0.06773,-0.52493 -0.186267,-0.70273 -0.127,-0.2032 -0.321734,-0.3556 -0.618067,-0.49954 l -0.5588,-0.2794 c -0.1778,-0.0847 -0.3048,-0.18626 -0.364067,-0.28786 -0.0508,-0.0931 -0.0762,-0.19474 -0.0762,-0.32174 0,-0.16086 0.0508,-0.31326 0.160867,-0.42333 0.09313,-0.0931 0.220133,-0.14393 0.381,-0.14393 0.135466,0 0.270933,0.0423 0.372533,0.1524 0.110067,0.11853 0.160867,0.27093 0.160867,0.52493 h 0.677334 c 0,-0.4318 -0.127,-0.74507 -0.355601,-0.9652 -0.211666,-0.21167 -0.508,-0.31327 -0.855133,-0.31327 -0.338667,0 -0.643467,0.11007 -0.863601,0.3302 -0.220133,0.22014 -0.364066,0.508 -0.364066,0.889 0,0.2286 0.04233,0.41487 0.135466,0.57574 0.110067,0.18626 0.313267,0.36406 0.601134,0.508 l 0.567267,0.28786 c 0.1778,0.0931 0.3048,0.18627 0.389467,0.31327 0.0762,0.11853 0.110066,0.24553 0.110066,0.39793 0,0.1778 -0.06773,0.33867 -0.169333,0.44027 -0.110067,0.11007 -0.237067,0.16087 -0.414867,0.16087 -0.135467,0 -0.287867,-0.0508 -0.389467,-0.1524 -0.127,-0.13547 -0.186266,-0.3048 -0.186266,-0.5334 h -0.677334 c 0,0.39793 0.118533,0.70273 0.372533,0.9652 0.211667,0.22013 0.524934,0.33866 0.880534,0.33866 0.3556,0 0.6604,-0.1016 0.897467,-0.34713 0.220134,-0.22013 0.372534,-0.52493 0.372534,-0.9144 z"
         id="path890" />
      <path
         d="m 54.050713,370.13217 v -4.38573 h -0.6858 v 4.38573 z m 0.05927,-5.16467 v -0.79586 h -0.804334 v 0.79586 z"
         id="path892" />
      <path
         d="m 57.91151,365.74644 h -0.753533 l -0.6604,3.302 -0.668867,-3.302 h -0.753534 l 1.058334,4.38573 h 0.728133 z"
         id="path894" />
      <path
         d="m 61.289707,368.10017 c 0,-1.08373 -0.05927,-1.73567 -0.389466,-2.0828 -0.2286,-0.24553 -0.508001,-0.33867 -0.863601,-0.33867 -0.3556,0 -0.635,0.0931 -0.8636,0.33867 -0.321734,0.34713 -0.381,0.99907 -0.381,1.92193 0,0.9144 0.05927,1.5748 0.389467,1.92194 0.2286,0.24553 0.499533,0.33866 0.872067,0.33866 0.3556,0 0.651933,-0.1016 0.8636,-0.32173 0.245533,-0.26247 0.347133,-0.56727 0.3556,-0.97367 h -0.6858 c 0,0.21167 -0.03387,0.381 -0.143934,0.508 -0.110066,0.127 -0.237066,0.16934 -0.389466,0.16934 -0.1778,0 -0.313267,-0.0762 -0.389467,-0.18627 -0.1524,-0.19473 -0.1778,-0.60113 -0.1778,-1.2954 z M 60.59544,367.5837 h -1.109133 c 0,-0.635 0.03387,-0.94826 0.169333,-1.10913 0.08467,-0.11007 0.194734,-0.1778 0.381,-0.1778 0.186267,0 0.3048,0.0677 0.389467,0.1778 0.135467,0.16087 0.169333,0.47413 0.169333,1.10913 z"
         id="path896" />
      <path
         d="m 67.588914,367.11804 c 0,-1.63407 -0.04233,-2.17594 -0.4318,-2.5908 -0.220134,-0.24554 -0.541867,-0.42334 -1.032934,-0.42334 h -1.388534 v 6.02827 h 1.388534 c 0.491067,0 0.8128,-0.1778 1.032934,-0.42333 0.389466,-0.41487 0.4318,-0.95674 0.4318,-2.5908 z m -0.728134,0 c 0,1.38853 -0.01693,1.8542 -0.245533,2.1336 -0.110067,0.13546 -0.2794,0.2286 -0.516467,0.2286 h -0.635001 v -4.7244 h 0.635001 c 0.237067,0 0.4064,0.0931 0.516467,0.2286 0.2286,0.2794 0.245533,0.74506 0.245533,2.1336 z"
         id="path898" />
      <path
         d="m 71.322708,368.10017 c 0,-1.08373 -0.05927,-1.73567 -0.389466,-2.0828 -0.228601,-0.24553 -0.508001,-0.33867 -0.863601,-0.33867 -0.3556,0 -0.635,0.0931 -0.8636,0.33867 -0.321734,0.34713 -0.381,0.99907 -0.381,1.92193 0,0.9144 0.05927,1.5748 0.389467,1.92194 0.2286,0.24553 0.499533,0.33866 0.872067,0.33866 0.3556,0 0.651933,-0.1016 0.8636,-0.32173 0.245533,-0.26247 0.347133,-0.56727 0.3556,-0.97367 h -0.6858 c 0,0.21167 -0.03387,0.381 -0.143934,0.508 -0.110066,0.127 -0.237066,0.16934 -0.389466,0.16934 -0.177801,0 -0.313267,-0.0762 -0.389467,-0.18627 -0.1524,-0.19473 -0.1778,-0.60113 -0.1778,-1.2954 z m -0.694267,-0.51647 h -1.109133 c 0,-0.635 0.03387,-0.94826 0.169333,-1.10913 0.08467,-0.11007 0.194733,-0.1778 0.381,-0.1778 0.186267,0 0.3048,0.0677 0.389467,0.1778 0.135467,0.16087 0.169333,0.47413 0.169333,1.10913 z"
         id="path900" />
      <path
         d="m 75.005707,365.74644 h -0.753534 l -0.6604,3.302 -0.668867,-3.302 h -0.753534 l 1.058334,4.38573 h 0.728134 z"
         id="path902" />
      <path
         d="m 78.383904,368.10017 c 0,-1.08373 -0.05927,-1.73567 -0.389467,-2.0828 -0.2286,-0.24553 -0.508,-0.33867 -0.8636,-0.33867 -0.355601,0 -0.635001,0.0931 -0.863601,0.33867 -0.321733,0.34713 -0.381,0.99907 -0.381,1.92193 0,0.9144 0.05927,1.5748 0.389467,1.92194 0.2286,0.24553 0.499533,0.33866 0.872067,0.33866 0.3556,0 0.651934,-0.1016 0.8636,-0.32173 0.245534,-0.26247 0.347134,-0.56727 0.3556,-0.97367 h -0.6858 c 0,0.21167 -0.03387,0.381 -0.143933,0.508 -0.110067,0.127 -0.237067,0.16934 -0.389467,0.16934 -0.1778,0 -0.313267,-0.0762 -0.389467,-0.18627 -0.1524,-0.19473 -0.1778,-0.60113 -0.1778,-1.2954 z m -0.694267,-0.51647 h -1.109134 c 0,-0.635 0.03387,-0.94826 0.169333,-1.10913 0.08467,-0.11007 0.194734,-0.1778 0.381001,-0.1778 0.186266,0 0.3048,0.0677 0.389466,0.1778 0.135467,0.16087 0.169334,0.47413 0.169334,1.10913 z"
         id="path904" />
      <path
         d="m 80.991645,370.13217 v -0.61807 c -0.448734,0 -0.651934,-0.2286 -0.651934,-0.6604 v -4.7498 h -0.6858 v 4.7752 c 0,0.4826 0.1524,0.7874 0.389467,0.98214 0.262466,0.22013 0.575733,0.27093 0.948267,0.27093 z"
         id="path906" />
      <path
         d="m 84.479904,367.9393 c 0,-0.889 -0.04233,-1.50706 -0.313266,-1.8542 -0.220134,-0.29633 -0.541867,-0.4064 -0.931334,-0.4064 -0.389467,0 -0.702734,0.11007 -0.922867,0.4064 -0.270934,0.34714 -0.321734,0.9652 -0.321734,1.8542 0,0.889 0.0508,1.50707 0.321734,1.8542 0.220133,0.29634 0.5334,0.4064 0.922867,0.4064 0.389467,0 0.7112,-0.11006 0.931334,-0.4064 0.270933,-0.34713 0.313266,-0.9652 0.313266,-1.8542 z m -0.6858,0 c 0,0.7874 -0.0085,1.23614 -0.169333,1.45627 -0.08467,0.11853 -0.2286,0.18627 -0.389467,0.18627 -0.160867,0 -0.296334,-0.0677 -0.381,-0.18627 -0.160867,-0.22013 -0.1778,-0.66887 -0.1778,-1.45627 0,-0.7874 0.01693,-1.23613 0.1778,-1.45626 0.08467,-0.11854 0.220133,-0.18627 0.381,-0.18627 0.160867,0 0.3048,0.0677 0.389467,0.18627 0.160866,0.22013 0.169333,0.66886 0.169333,1.45626 z"
         id="path908" />
      <path
         d="m 88.272979,367.9393 c 0,-1.016 -0.04233,-1.60866 -0.321733,-1.93886 -0.194734,-0.2286 -0.423334,-0.32174 -0.728134,-0.32174 -0.169333,0 -0.3302,0.0423 -0.474133,0.13547 -0.0762,0.0593 -0.220134,0.1778 -0.262467,0.27093 v -0.33866 h -0.668867 v 6.02827 h 0.6858 v -1.94734 c 0.06773,0.0931 0.160867,0.18627 0.245534,0.24553 0.143933,0.0847 0.296333,0.127 0.474133,0.127 0.321734,0 0.5334,-0.1016 0.728134,-0.3302 0.2794,-0.3302 0.321733,-0.9144 0.321733,-1.9304 z m -0.694267,0 c 0,0.90594 -0.0254,1.27847 -0.1778,1.46474 -0.08467,0.11006 -0.211666,0.1778 -0.372533,0.1778 -0.143934,0 -0.262467,-0.0423 -0.3556,-0.13547 -0.110067,-0.11007 -0.169334,-0.27093 -0.169334,-0.508 v -2.0066 c 0,-0.23707 0.05927,-0.38947 0.169334,-0.49953 0.09313,-0.0931 0.211666,-0.13547 0.3556,-0.13547 0.160867,0 0.287867,0.0677 0.372533,0.1778 0.1524,0.18627 0.1778,0.5588 0.1778,1.46473 z"
         id="path910" />
      <path
         d="m 93.733979,370.13217 v -3.2258 c 0,-0.47413 -0.0762,-0.7112 -0.254,-0.90593 -0.186267,-0.21167 -0.4064,-0.32174 -0.7874,-0.32174 -0.160867,0 -0.364067,0.0508 -0.499534,0.13547 -0.127,0.0762 -0.254,0.2032 -0.347133,0.32173 -0.1778,-0.27093 -0.499534,-0.4572 -0.8382,-0.4572 -0.1778,0 -0.338667,0.0508 -0.474134,0.13547 -0.09313,0.0593 -0.211667,0.16933 -0.270933,0.27093 v -0.33866 h -0.660401 v 4.38573 h 0.685801 v -3.2258 c 0,-0.39793 0.2286,-0.60113 0.516467,-0.60113 0.287866,0 0.524933,0.2032 0.524933,0.60113 v 3.2258 h 0.6858 v -3.2258 c 0,-0.39793 0.2286,-0.60113 0.516467,-0.60113 0.287867,0 0.516467,0.2032 0.516467,0.60113 v 3.2258 z"
         id="path912" />
      <path
         d="m 97.535507,368.10017 c 0,-1.08373 -0.05927,-1.73567 -0.389466,-2.0828 -0.2286,-0.24553 -0.508001,-0.33867 -0.863601,-0.33867 -0.3556,0 -0.635,0.0931 -0.8636,0.33867 -0.321734,0.34713 -0.381,0.99907 -0.381,1.92193 0,0.9144 0.05927,1.5748 0.389467,1.92194 0.2286,0.24553 0.499533,0.33866 0.872067,0.33866 0.3556,0 0.651933,-0.1016 0.8636,-0.32173 0.245533,-0.26247 0.347133,-0.56727 0.3556,-0.97367 h -0.6858 c 0,0.21167 -0.03387,0.381 -0.143934,0.508 -0.110066,0.127 -0.237066,0.16934 -0.389466,0.16934 -0.1778,0 -0.313267,-0.0762 -0.389467,-0.18627 -0.1524,-0.19473 -0.1778,-0.60113 -0.1778,-1.2954 z M 96.84124,367.5837 h -1.109133 c 0,-0.635 0.03387,-0.94826 0.169333,-1.10913 0.08467,-0.11007 0.194734,-0.1778 0.381,-0.1778 0.186267,0 0.3048,0.0677 0.389467,0.1778 0.135467,0.16087 0.169333,0.47413 0.169333,1.10913 z"
         id="path914" />
      <path
         d="m 101.24391,370.13217 v -3.2258 c 0,-0.47413 -0.0847,-0.7112 -0.26246,-0.90593 -0.18627,-0.21167 -0.41487,-0.32174 -0.74507,-0.32174 -0.1778,0 -0.338667,0.0508 -0.474134,0.13547 -0.09313,0.0593 -0.211666,0.16933 -0.270933,0.27093 v -0.33866 h -0.6604 v 4.38573 h 0.6858 v -3.2258 c 0,-0.39793 0.2286,-0.60113 0.516467,-0.60113 0.28787,0 0.52493,0.2032 0.52493,0.60113 v 3.2258 z"
         id="path916" />
      <path
         d="m 104.23264,370.13217 v -0.61807 c -0.4572,0 -0.70273,-0.19473 -0.70273,-0.6604 v -2.57386 h 0.67733 v -0.5334 h -0.67733 v -1.20227 h -0.68581 v 1.20227 h -0.49953 v 0.5334 h 0.49953 v 2.59926 c 0,0.4572 0.13547,0.77894 0.381,0.98214 0.27941,0.23706 0.61807,0.27093 1.00754,0.27093 z"
         id="path918" />
    </g>
    <path
       d="m -9.9599712,339.31201 c -1.8104558,0.94156 -4.3966698,1.41287 -7.7582888,1.41287 h -3.379964 v -13.07817 c 1.144411,-0.11077 2.604206,-0.16616 4.37762,-0.16616 1.329972,0 2.577041,0.10195 3.740502,0.3048 1.163461,0.20355 2.169936,0.54539 3.0201308,1.02482 0.8494889,0.48048 1.5141222,1.14582 1.9949583,1.99496 0.4797778,0.85019 0.720725,1.90323 0.720725,3.15877 0,2.62361 -0.9059333,4.40584 -2.7156833,5.34811 m 10.03017756,-5.29237 c 0,-4.32259 -1.48731106,-7.49935 -4.46087486,-9.5317 -2.9742694,-2.0313 -7.2509945,-3.048 -12.8287635,-3.048 -1.662642,0 -3.482622,0.0649 -5.458178,0.19438 -1.976966,0.12947 -3.777897,0.37888 -5.403497,0.74788 v 37.84883 h 6.982883 v -13.52162 h 3.491089 c 2.8067,0 5.300839,-0.23954 7.481005,-0.72002 2.1794615,-0.48013 4.0262532,-1.22837 5.5417865,-2.24473 1.5141221,-1.01459 2.668411,-2.32692 3.4632193,-3.93418 0.79410279,-1.6069 1.19133056,-3.53694 1.19133056,-5.79084"
       style="fill:#ffffff;fill-opacity:1;fill-rule:nonzero;stroke:none;stroke-width:0.352778"
       id="path1941" />
    <path
       d="m 9.3513309,345.54592 c 1.1821581,-3.28754 2.3181031,-6.33518 3.4081861,-9.14365 1.089378,-2.80705 2.058811,-5.19006 2.909358,-7.14869 0.811742,1.88419 1.773414,4.24886 2.881842,7.09331 1.108428,2.8455 2.252839,5.91149 3.43535,9.19903 z m 17.2349581,-6.53874 c -1.237897,-3.10373 -2.465564,-6.0586 -3.685117,-8.86707 -1.218847,-2.8067 -2.474736,-5.57776 -3.767666,-8.31215 H 12.46777 c -1.29152,2.73439 -2.5477613,5.50545 -3.765903,8.31215 -1.2181416,2.80847 -2.4447499,5.76334 -3.681236,8.86707 -1.2364861,3.10304 -2.5004888,6.39163 -3.792361,9.86332 -1.29151945,3.47415 -2.6581805,7.26016 -4.0978666,11.3605 h 7.2612248 c 0.5178778,-1.47708 1.0463389,-2.96439 1.5829139,-4.46123 0.5369278,-1.49578 1.0650361,-3.01978 1.5836194,-4.57164 H 23.779236 c 0.517878,1.55186 1.055158,3.06705 1.610783,4.54413 0.555978,1.47813 1.093259,2.97391 1.611137,4.48874 h 7.538508 c -1.440745,-4.10034 -2.817284,-7.88635 -4.128559,-11.3605 -1.311275,-3.47169 -2.586566,-6.76028 -3.824816,-9.86332"
       style="fill:#ffffff;fill-opacity:1;fill-rule:nonzero;stroke:none;stroke-width:0.352778"
       id="path1945" />
    <path
       d="m 40.500162,324.63141 c -1.958975,2.12478 -2.936875,5.05248 -2.936875,8.78311 v 26.8164 h 6.705247 v -19.16889 h 8.119533 v -5.59681 h -8.119533 v -1.93993 c 0,-0.92287 0.09137,-1.78188 0.277283,-2.57669 0.18415,-0.7941 0.498475,-1.46826 0.94227,-2.02247 0.443089,-0.55386 1.032933,-0.98778 1.772708,-1.30246 0.73907,-0.31327 1.643239,-0.47131 2.715683,-0.47131 h 4.842934 v -5.70724 h -5.452534 c -3.95358,0 -6.908799,1.06222 -8.866716,3.18629"
       style="fill:#ffffff;fill-opacity:1;fill-rule:nonzero;stroke:none;stroke-width:0.352778"
       id="path1949" />
    <path
       d="m 59.945731,360.39112 h 6.982178 v -38.94596 h -6.982178 z"
       style="fill:#ffffff;fill-opacity:1;fill-rule:nonzero;stroke:none;stroke-width:0.352778"
       id="path1951" />
    <path
       d="m 96.186027,350.72078 c -2.309283,2.38266 -5.809897,3.5747 -10.501136,3.5747 -1.145822,0 -3.915833,0.0374 -4.322939,0 v -27.09827 c 0.887236,-0.11113 2.36467,0 4.434064,0 4.728633,0 8.220075,1.16346 10.472914,3.49108 2.253191,2.32728 3.380669,5.67126 3.380669,10.02948 0,4.2866 -1.155347,7.62 -3.463572,10.00301 m 4.821413,-24.88177 c -1.903235,-1.6069 -4.183944,-2.78871 -6.843888,-3.54612 -2.659944,-0.75706 -5.597525,-0.84773 -8.81133,-0.84773 -0.966964,0 -6.475942,-0.043 -10.972447,0 v 38.88352 c 4.746272,0.0416 9.985022,0.0624 10.862027,0.0624 3.250142,0 6.215239,-0.39758 8.893881,-1.19203 2.677936,-0.7941 4.968522,-2.0126 6.871757,-3.65725 1.90253,-1.64289 3.37115,-3.69358 4.40549,-6.15138 1.03364,-2.45604 1.55152,-5.34706 1.55152,-8.67269 0,-3.39761 -0.51788,-6.32566 -1.55152,-8.78276 -1.03434,-2.45639 -2.50296,-4.48874 -4.40549,-6.096"
       style="fill:#ffffff;fill-opacity:1;fill-rule:nonzero;stroke:none;stroke-width:0.352778"
       id="path1955" />
    <path
       d="m -95.45069,366.66852 c 0.368653,-1.23896 0.826558,-2.47685 1.352197,-3.69817 1.139825,-2.67899 2.552347,-5.29167 4.095397,-7.83131 3.106561,-5.07648 6.745817,-9.87778 10.695164,-14.40992 2.976033,-3.40924 6.127044,-6.67843 9.445625,-9.77159 -0.50412,-0.42615 -1.012825,-0.84631 -1.524,-1.26365 -3.432175,2.9203 -6.714772,6.02015 -9.843558,9.2777 -1.345848,1.40371 -2.658886,2.84128 -3.940881,4.30848 -0.677686,0.7754 -1.347964,1.55787 -2.005541,2.35232 -2.024239,2.44616 -3.950053,4.98334 -5.747809,7.62847 -1.734608,2.57104 -3.3528,5.24228 -4.73075,8.09166 -0.153811,0.31609 -0.303388,0.63535 -0.450497,0.95674 0.664281,1.28481 1.398411,2.534 2.210506,3.73238 0.142875,0.21202 0.296686,0.41734 0.444147,0.62689"
       style="fill:#f68715;fill-opacity:1;fill-rule:nonzero;stroke:none;stroke-width:0.352778"
       id="path1959" />
    <path
       d="m -53.475815,318.3724 0.735542,1.37054 2.575983,-4.06506 c -0.705556,0.31362 -1.40335,0.64312 -2.094442,0.98355 -4.11233,2.05034 -7.998177,4.51449 -11.716455,7.20866 0.41275,0.31573 0.821267,0.63641 1.230136,0.95744 2.953456,-2.34139 6.0325,-4.52685 9.269236,-6.45513"
       style="fill:#f68715;fill-opacity:1;fill-rule:nonzero;stroke:none;stroke-width:0.352778"
       id="path1963" />
    <path
       d="m -49.363766,349.52193 c -1.363133,-1.36313 -3.573286,-1.36313 -4.936772,0 -1.363133,1.36313 -1.363133,3.57364 0,4.93677 1.363486,1.36314 3.573639,1.36314 4.936772,0 1.363133,-1.36313 1.363133,-3.57364 0,-4.93677"
       style="fill:#f68715;fill-opacity:1;fill-rule:nonzero;stroke:none;stroke-width:0.352778"
       id="path1967" />
    <path
       d="m -60.576526,355.78268 c -2.278239,2.2666 -4.646083,4.44112 -7.092244,6.51545 0.380647,0.33832 0.750711,0.68792 1.135591,1.02129 1.23825,1.06998 2.501195,2.11455 3.785306,3.13232 2.346678,-1.84009 4.630914,-3.75391 6.839302,-5.75204 1.437217,-1.29928 1.490487,-3.54119 0.121709,-4.91243 -1.321859,-1.32468 -3.46322,-1.32433 -4.789664,-0.005"
       style="fill:#f68715;fill-opacity:1;fill-rule:nonzero;stroke:none;stroke-width:0.352778"
       id="path1971" />
    <path
       d="m -70.867512,364.91222 c -0.154164,0.12136 -0.304094,0.24871 -0.458964,0.36901 -2.327628,1.80939 -4.730397,3.51119 -7.211836,5.04542 -2.476147,1.53529 -5.040841,2.91818 -7.655277,3.95041 -0.393348,0.15452 -0.7874,0.2981 -1.182159,0.43462 -0.915105,0.3175 -1.830564,0.5835 -2.730147,0.76306 -0.402872,0.0811 -0.8001,0.13617 -1.191683,0.17815 -0.85337,0.0917 -1.666875,0.0931 -2.35832,-0.0374 -0.464961,-0.10689 -0.859719,-0.26247 -1.1938,-0.45897 -0.01693,-0.01 -0.03775,-0.0166 -0.05433,-0.0264 -0.321734,-0.2339 -0.59055,-0.51788 -0.820914,-0.88512 -0.03034,-0.0554 -0.05715,-0.11713 -0.08572,-0.17639 -1.609725,-1.59597 -3.09245,-3.32564 -4.403728,-5.18231 -0.03,-0.042 -0.0564,-0.0875 -0.0861,-0.13017 -0.13017,0.63006 -0.242,1.27105 -0.30903,1.93675 -0.17392,1.72579 -0.0907,3.69323 0.842082,5.6582 0.399345,0.77611 0.951089,1.4993 1.610784,2.11243 0.16263,0.15099 0.326672,0.30092 0.502355,0.43674 0.903817,0.66358 1.904295,1.0922 2.887133,1.35925 1.963914,0.47625 3.795889,0.381 5.499806,0.13688 1.707444,-0.25753 3.309055,-0.70167 4.856691,-1.22449 3.091745,-1.05516 5.96265,-2.44369 8.723842,-3.97545 2.762955,-1.53141 5.407378,-3.22333 7.965016,-5.02215 0.601486,-0.42262 1.188509,-0.86254 1.780823,-1.29646 -0.446617,-0.34043 -0.892528,-0.68156 -1.334206,-1.02834 -1.215319,-0.95674 -2.412647,-1.9364 -3.592336,-2.93723"
       style="fill:#f68715;fill-opacity:1;fill-rule:nonzero;stroke:none;stroke-width:0.352778"
       id="path1975" />
    <path
       d="m -96.280635,320.26463 c -0.08431,-1.28623 0.131586,-2.45463 0.555625,-3.22686 0.230717,-0.36759 0.499181,-0.65123 0.820914,-0.88547 0.03598,-0.0219 0.08184,-0.0374 0.119239,-0.0582 0.321733,-0.17956 0.69215,-0.32667 1.128889,-0.42686 1.008944,-0.1905 2.269772,-0.11712 3.550002,0.14041 1.287286,0.25717 2.607734,0.68438 3.912306,1.19803 2.614789,1.03223 5.179483,2.41476 7.655277,3.9504 2.481439,1.53423 4.884561,3.23603 7.211836,5.04543 3.769431,2.9277 7.3533,6.11893 10.749845,9.49819 1.326797,1.31974 3.467805,1.32045 4.789663,-0.004 1.368778,-1.37125 1.315861,-3.61315 -0.121355,-4.91279 -2.208742,-1.99778 -4.49192,-3.91336 -6.836833,-5.75521 -0.408517,-0.32103 -0.817034,-0.64171 -1.230136,-0.95744 -1.231548,-0.94157 -2.475442,-1.86831 -3.746148,-2.76155 -2.557991,-1.79916 -5.202413,-3.49073 -7.965369,-5.02249 -1.754717,-0.97332 -3.56235,-1.87713 -5.434541,-2.6857 -1.073503,-0.4639 -2.162528,-0.90487 -3.2893,-1.2894 -0.09948,-0.0335 -0.201084,-0.0635 -0.30092,-0.0967 -1.454855,-0.47978 -2.958041,-0.88689 -4.555772,-1.12783 -1.703917,-0.24413 -3.535892,-0.33938 -5.499453,0.13652 -0.983191,0.26741 -1.983669,0.69568 -2.887486,1.35925 -0.157691,0.12206 -0.303389,0.25788 -0.450497,0.39194 -0.682272,0.62265 -1.253066,1.36137 -1.662641,2.15724 -0.93274,1.96497 -1.016,3.93241 -0.84208,5.6582 0.17145,1.70568 0.58102,3.28118 1.080557,4.79072 0.997303,-1.54376 2.107142,-3.01237 3.311878,-4.39561 -0.0254,-0.24165 -0.05151,-0.48331 -0.0635,-0.72002"
       style="fill:#37bbc3;fill-opacity:1;fill-rule:nonzero;stroke:none;stroke-width:0.352778"
       id="path1979" />
    <path
       d="m -94.098316,328.31184 c -0.0021,-0.005 -0.0039,-0.01 -0.006,-0.0145 -0.835731,1.33455 -1.583972,2.72132 -2.240845,4.15007 1.056923,1.92335 2.207684,3.77543 3.420886,5.57425 1.795639,2.64195 3.722159,5.17242 5.744634,7.6147 0.0011,-0.001 0.0025,-0.002 0.0035,-0.004 0.657225,-0.79445 1.327503,-1.57727 2.005189,-2.35267 -1.716969,-2.31599 -3.337277,-4.69371 -4.83235,-7.1367 -1.54305,-2.53929 -2.955219,-5.15196 -4.095044,-7.83131"
       style="fill:#37bbc3;fill-opacity:1;fill-rule:nonzero;stroke:none;stroke-width:0.352778"
       id="path1983" />
    <path
       d="m -53.473769,372.91138 c -3.238853,-1.92934 -6.318603,-4.11692 -9.274175,-6.45971 -1.284111,-1.01777 -2.547055,-2.06164 -3.785305,-3.13232 -0.384881,-0.33337 -0.754945,-0.68298 -1.135592,-1.02129 -4.125736,-3.66854 -8.017933,-7.59636 -11.638844,-11.74468 -0.822325,-0.94332 -1.627011,-1.90112 -2.420408,-2.86773 -0.581025,0.74507 -1.149703,1.4986 -1.710267,2.25707 0.727781,0.79799 1.461911,1.58962 2.208389,2.3682 4.250619,4.42489 8.782402,8.56227 13.591822,12.34793 4.811889,3.77402 9.898944,7.22947 15.379347,9.96244 0.688622,0.33938 1.383947,0.66746 2.08668,0.98002 l -2.481439,-3.81212 z"
       style="fill:#37bbc3;fill-opacity:1;fill-rule:nonzero;stroke:none;stroke-width:0.352778"
       id="path1987" />
    <path
       d="m -48.757094,337.56125 c -1.363133,-1.36313 -3.573286,-1.36313 -4.936772,0 -1.363133,1.36313 -1.363133,3.57329 0,4.93677 1.363486,1.36314 3.573639,1.36314 4.936772,0 1.363133,-1.36348 1.363133,-3.57364 0,-4.93677"
       style="fill:#37bbc3;fill-opacity:1;fill-rule:nonzero;stroke:none;stroke-width:0.352778"
       id="path1991" />
    <path
       d="m -91.473155,371.40929 -0.01658,-0.0162 c -1.459441,-1.45591 -2.778124,-3.04412 -3.960988,-4.7244 -0.147461,-0.20955 -0.30092,-0.41486 -0.444148,-0.62724 -0.812094,-1.19803 -1.546225,-2.44722 -2.210505,-3.73203 -0.395464,-0.76518 -0.772231,-1.53988 -1.109133,-2.33257 -1.813981,-4.24462 -2.765071,-8.84767 -2.825041,-13.45882 -0.0727,-3.99451 0.54116,-8.00136 1.80375,-11.79442 3.5e-4,-3.6e-4 3.5e-4,-3.6e-4 3.5e-4,-7.1e-4 0.19473,-0.58526 0.402874,-1.16663 0.628652,-1.74096 0.200025,-0.50553 0.413103,-1.00577 0.635352,-1.50248 0.07408,-0.1651 0.154164,-0.32738 0.230364,-0.49177 0.153459,-0.32914 0.307975,-0.65758 0.470606,-0.98249 0.09701,-0.19332 0.198967,-0.38382 0.299508,-0.57538 0.01411,-0.0272 0.02787,-0.0543 0.04233,-0.0818 0.138641,-0.26353 0.279047,-0.52564 0.424391,-0.78599 0.112184,-0.20108 0.227895,-0.40076 0.343959,-0.60007 0.159102,-0.27235 0.32138,-0.54293 0.487186,-0.81139 0.124177,-0.20073 0.249414,-0.40041 0.377825,-0.59902 0.170039,-0.26388 0.345722,-0.52458 0.522816,-0.78387 0.131939,-0.19332 0.263173,-0.38735 0.398992,-0.57785 0.02293,-0.0325 0.04445,-0.0663 0.06773,-0.0984 0.16757,-0.23354 0.342548,-0.46178 0.515409,-0.69074 0.132291,-0.17533 0.261055,-0.35277 0.396522,-0.52564 0.248355,-0.31714 0.50553,-0.62723 0.764822,-0.93591 0.09172,-0.10937 0.179211,-0.22225 0.272344,-0.33056 3.53e-4,0 3.53e-4,-3.5e-4 3.53e-4,-3.5e-4 0.370417,-0.43039 0.750711,-0.85231 1.141942,-1.26436 0.84455,-0.88794 1.736725,-1.72966 2.667705,-2.5273 -0.418041,-0.11465 -0.834672,-0.22013 -1.247422,-0.30233 -0.999066,-0.20108 -1.981553,-0.28469 -2.846564,-0.22366 -0.288219,0.27517 -0.580319,0.54681 -0.859719,0.83185 -0.593725,0.59902 -1.161697,1.22485 -1.716617,1.86196 -1.205089,1.3836 -2.314575,2.85186 -3.311877,4.39597 -1.290469,1.99813 -2.400659,4.1148 -3.279429,6.33024 -1.89124,4.70429 -2.83951,9.78465 -2.78518,14.85865 0.0794,5.07435 1.18145,10.12578 3.20428,14.77504 0.39688,0.91087 0.83856,1.80128 1.30387,2.67934 0.27622,0.52106 0.56621,1.034 0.86466,1.5427 0.10759,0.18168 0.21202,0.36513 0.32244,0.54504 0.06632,0.10831 0.135467,0.21485 0.202495,0.32244 0.04939,0.079 0.09878,0.15805 0.148872,0.23672 0.279753,0.43779 0.563033,0.87312 0.861483,1.29822 0.350661,0.49671 0.714375,0.9839 1.087967,1.46297 0.320322,0.40993 0.651933,0.81033 0.988483,1.2065 0.04974,0.0582 0.09631,0.11959 0.14605,0.1778 0.05927,0.0691 0.122414,0.13405 0.182386,0.20285 0.72637,0.83361 1.483431,1.63935 2.275417,2.40911 0.0829,0.0804 0.161572,0.16546 0.24518,0.24554 l 0.01094,0.0113 h 3.52e-4 c 0.0053,0.005 0.01058,0.0106 0.01623,0.0162 0.772583,0.69533 1.59385,1.33703 2.434872,1.95192 0.391584,-0.042 0.788811,-0.097 1.191684,-0.1778 0.89923,-0.17991 1.815041,-0.44591 2.730147,-0.76341 -0.11042,-0.0769 -0.226484,-0.14605 -0.335845,-0.22436 -1.324327,-0.93733 -2.5781,-1.97027 -3.761669,-3.07799"
       style="fill:#2f3681;fill-opacity:1;fill-rule:nonzero;stroke:none;stroke-width:0.352778"
       id="path1995" />
    <path
       d="m -52.929962,311.05469 c -2.258131,-0.9846 -4.621389,-1.74766 -7.043914,-2.27436 -2.424289,-0.52035 -4.907491,-0.78563 -7.398455,-0.81703 -5.965825,-0.0956 -11.963753,1.33985 -17.33938,4.05095 0.09984,0.0328 0.201436,0.0631 0.300919,0.0967 1.126772,0.38452 2.215797,0.8255 3.2893,1.28905 0.06491,-0.03 0.127706,-0.0649 0.19297,-0.0942 4.24568,-1.92757 8.885766,-3.01131 13.58653,-3.2205 2.351969,-0.0984 4.717344,0.0434 7.056261,0.39722 2.34068,0.34714 4.65455,0.92569 6.896452,1.72932 4.490509,1.59385 8.691033,4.08058 12.342989,7.27181 -3.297414,-3.55671 -7.368469,-6.45407 -11.883672,-8.42892"
       style="fill:#2f3681;fill-opacity:1;fill-rule:nonzero;stroke:none;stroke-width:0.352778"
       id="path1999" />
    <path
       d="m -68.091292,381.1975 c -3.046236,-0.13441 -6.06425,-0.64417 -8.968669,-1.50566 -1.166284,0.51294 -2.359731,0.98672 -3.589161,1.40653 -0.09701,0.0328 -0.196145,0.0621 -0.293511,0.0938 1.754716,0.6163 3.551413,1.10419 5.371394,1.45803 2.457803,0.47625 4.95935,0.68227 7.449608,0.65934 2.490611,-0.031 4.973814,-0.29457 7.397397,-0.81633 2.422525,-0.52599 4.785431,-1.28869 7.043914,-2.27294 4.51485,-1.97415 8.586258,-4.86975 11.88473,-8.42575 -3.65125,3.19193 -7.851069,5.68043 -12.34193,7.27463 -4.486275,1.60479 -9.25195,2.30858 -13.953772,2.12831"
       style="fill:#2f3681;fill-opacity:1;fill-rule:nonzero;stroke:none;stroke-width:0.352778"
       id="path2003" />
  </g>
</svg>
